:SAMPLES-PER-SECOND 30
:FULLY-SPECIFIED
:DEGREES
170
root  0.65077 22.4608 1.14068 -41.7628 87.4207 -23.7246
RightUpLeg  -61.8083 -6.92677 -4.67452
RightLeg  92.1916 19.9912 -28.7329
RightFoot  -16.3535 0.366498 11.5347
RightToes  5.82077e-011 -3.18055e-015 -2.98177e-016
Spine  28.3963 -1.73126 12.3008
Spine1  9.10172 3.07008 -6.81101
HEad  -11.3712 -10.0556 -0.965149
LeftShoulder1  -3.88251e-019 9.70628e-020 -3.87848e-018
LeftArm  -23.9084 45.7272 -68.8163
LeftForeArm  -6.29342 -13.8613 -2.85651
LeftHand  -0.202597 -2.06441 3.50231
RightShoulder  7.82196 10.8959 36.1897
RightArm  -1.72863 -36.2323 22.8916
RightForeArm  -0.754459 9.50285 -4.74363
RightHand  -0.108775 1.26335 -1.97473
LeftUpLeg  -57.9429 -2.30583 14.1312
LeftLeg  106.107 -10.1857 -10.5439
LeftFoot  -30.4078 -1.08173 -6.55559
LeftToes  7.79675e-011 9.80247e-012 -3.28897e-011
171
root  0.56852 22.3931 1.1604 -41.1986 87.2777 -22.1088
RightUpLeg  -61.0065 -6.51043 -4.75025
RightLeg  92.2509 20.0555 -28.8703
RightFoot  -16.1585 0.348017 11.609
RightToes  5.82077e-011 -3.18055e-015 -2.98177e-016
Spine  28.6345 -1.64125 12.7396
Spine1  9.34155 3.24836 -6.24095
HEad  -13.9554 -9.19988 0.134375
LeftShoulder1  -3.88251e-019 9.70628e-020 -3.87848e-018
LeftArm  -24.0326 46.7845 -69.7566
LeftForeArm  3.74659 -9.53236 -3.35021
LeftHand  0.00961738 -1.44873 -0.0211827
RightShoulder  7.98406 10.9446 36.8791
RightArm  -0.517901 -35.9048 21.8535
RightForeArm  -4.40195 10.6719 -4.30236
RightHand  -0.186325 0.506447 -3.5179
LeftUpLeg  -57.1209 -2.91086 14.2035
LeftLeg  106.213 -10.209 -10.3823
LeftFoot  -30.0989 -1.24087 -7.74424
LeftToes  7.79675e-011 9.80247e-012 -3.28897e-011
172
root  0.505214 22.3211 1.19538 -38.3574 87.0374 -18.3256
RightUpLeg  -60.3664 -6.22134 -4.74849
RightLeg  92.4328 20.133 -28.8033
RightFoot  -16.1179 0.342294 11.5532
RightToes  5.82077e-011 -3.18055e-015 -2.98177e-016
Spine  28.8956 -1.50293 12.7276
Spine1  9.25109 3.29565 -5.52318
HEad  -15.9741 -8.01881 1.28723
LeftShoulder1  -3.88251e-019 9.70628e-020 -3.87848e-018
LeftArm  -24.6866 48.3428 -70.7418
LeftForeArm  10.954 -5.8806 -3.58905
LeftHand  0.0232651 -0.660408 -0.38985
RightShoulder  8.0442 10.9601 37.1382
RightArm  2.7771 -36.9263 20.7267
RightForeArm  -10.3461 14.1982 -4.71901
RightHand  -0.417696 0.426752 -8.09419
LeftUpLeg  -56.4307 -3.16352 14.2662
LeftLeg  106.439 -10.1762 -10.3328
LeftFoot  -29.5 -1.35268 -8.80909
LeftToes  7.79675e-011 9.80247e-012 -3.28897e-011
173
root  0.462482 22.2862 1.25988 -34.2551 87.0175 -13.5071
RightUpLeg  -59.8343 -6.35992 -4.84343
RightLeg  92.6565 20.181 -28.5341
RightFoot  -16.2481 0.351565 11.3892
RightToes  5.82077e-011 -3.18055e-015 -2.98177e-016
Spine  28.984 -1.36048 11.9693
Spine1  8.99054 3.0205 -4.49791
HEad  -17.2198 -6.39747 2.19528
LeftShoulder1  -3.88251e-019 9.70628e-020 -3.87848e-018
LeftArm  -25.95 50.7144 -71.7904
LeftForeArm  13.2867 -3.50952 -3.55138
LeftHand  -0.0705783 -0.113347 1.59465
RightShoulder  8.08249 10.9653 37.3133
RightArm  9.49958 -38.2389 19.6935
RightForeArm  -19.3441 18.3959 -6.95381
RightHand  -0.631983 0.76764 -11.7211
LeftUpLeg  -56.0136 -3.36145 14.1249
LeftLeg  106.512 -10.3898 -9.5557
LeftFoot  -28.6362 -1.28796 -8.84516
LeftToes  7.79675e-011 9.80247e-012 -3.28897e-011
174
root  0.433958 22.2858 1.33008 -30.579 87.0987 -9.34049
RightUpLeg  -59.3999 -6.82892 -4.91851
RightLeg  92.8429 20.1766 -28.1392
RightFoot  -16.4654 0.367573 11.1619
RightToes  5.82077e-011 -3.18055e-015 -2.98177e-016
Spine  28.8852 -1.30041 10.9028
Spine1  8.63912 2.51952 -3.41388
HEad  -17.6365 -4.6721 2.7273
LeftShoulder1  -3.88251e-019 9.70628e-020 -3.87848e-018
LeftArm  -27.7822 53.7972 -72.9529
LeftForeArm  11.6644 -2.7202 -3.21853
LeftHand  -0.162065 -0.27156 3.64455
RightShoulder  8.11472 10.9669 37.4667
RightArm  16.4062 -39.2099 18.858
RightForeArm  -28.4012 21.9393 -10.1537
RightHand  -0.710437 0.913203 -12.8469
LeftUpLeg  -55.7641 -3.55038 13.8609
LeftLeg  106.359 -10.8827 -7.98009
LeftFoot  -27.8761 -1.15995 -8.34573
LeftToes  7.79675e-011 9.80247e-012 -3.28897e-011
175
root  0.413622 22.2754 1.37493 -28.221 86.98 -6.57518
RightUpLeg  -59.0844 -7.30899 -4.83976
RightLeg  93.0428 20.1578 -27.6666
RightFoot  -16.6892 0.382489 10.9062
RightToes  5.82077e-011 -3.18055e-015 -2.98177e-016
Spine  28.7244 -1.28299 10.0756
Spine1  8.2598 2.07523 -2.48253
HEad  -17.4472 -3.40472 3.0233
LeftShoulder1  -3.88251e-019 9.70628e-020 -3.87848e-018
LeftArm  -29.8344 57.044 -74.304
LeftForeArm  7.76182 -3.31104 -2.80742
LeftHand  -0.179234 -0.410699 3.91821
RightShoulder  8.09119 10.9525 37.3843
RightArm  19.4021 -39.8939 18.1161
RightForeArm  -32.1189 25.0262 -12.0547
RightHand  -0.669701 0.910808 -12.1073
LeftUpLeg  -55.3838 -3.6147 13.6489
LeftLeg  106.156 -11.3634 -6.45757
LeftFoot  -27.6404 -1.14308 -8.35337
LeftToes  7.79675e-011 9.80247e-012 -3.28897e-011
176
root  0.402475 22.2391 1.38731 -27.0485 86.6316 -4.93054
RightUpLeg  -58.7823 -7.70011 -4.67885
RightLeg  93.3112 20.1494 -27.1103
RightFoot  -16.91 0.394948 10.6153
RightToes  5.82077e-011 -3.18055e-015 -2.98177e-016
Spine  28.5287 -1.24756 9.64613
Spine1  8.09476 1.83124 -1.73535
HEad  -17.0172 -2.75397 3.22972
LeftShoulder1  -3.88251e-019 9.70628e-020 -3.87848e-018
LeftArm  -31.5447 59.6998 -75.6193
LeftForeArm  3.46457 -4.61423 -2.56145
LeftHand  -0.119895 0.0558677 2.8351
RightShoulder  8.04054 10.9304 37.1865
RightArm  21.404 -40.2615 17.4178
RightForeArm  -30.9447 27.4542 -13.3011
RightHand  -0.657892 1.39819 -11.0916
LeftUpLeg  -54.6969 -3.62162 13.5685
LeftLeg  106.058 -11.6156 -5.64719
LeftFoot  -27.9941 -1.23199 -8.82139
LeftToes  7.79675e-011 9.80247e-012 -3.28897e-011
177
root  0.400969 22.1986 1.37718 -26.7674 86.2218 -4.0766
RightUpLeg  -58.3539 -8.10829 -4.54907
RightLeg  93.6122 20.1306 -26.4641
RightFoot  -17.158 0.405663 10.2328
RightToes  5.82077e-011 -3.18055e-015 -2.98177e-016
Spine  28.256 -1.23836 9.56327
Spine1  8.27967 1.74434 -1.26999
HEad  -16.5583 -2.43 3.3045
LeftShoulder1  -3.88251e-019 9.70628e-020 -3.87848e-018
LeftArm  -32.5228 61.3542 -76.487
LeftForeArm  0.686724 -5.95861 -2.43902
LeftHand  -0.077124 0.448548 1.96091
RightShoulder  8.03963 10.9255 37.1929
RightArm  23.832 -40.0065 16.7519
RightForeArm  -24.965 28.7749 -14.2923
RightHand  -0.81774 2.84128 -11.3853
LeftUpLeg  -53.8263 -3.73766 13.6358
LeftLeg  106.073 -11.6945 -5.37561
LeftFoot  -28.5853 -1.31749 -9.09716
LeftToes  7.79675e-011 9.80247e-012 -3.28897e-011
178
root  0.403013 22.1643 1.35301 -27.0388 85.8216 -3.7382
RightUpLeg  -57.84 -8.57231 -4.45891
RightLeg  93.9065 20.0892 -25.7565
RightFoot  -17.4301 0.411931 9.71563
RightToes  5.82077e-011 -3.18055e-015 -2.98177e-016
Spine  27.9314 -1.29312 9.77225
Spine1  8.62221 1.75939 -1.18772
HEad  -16.0728 -2.18585 3.14624
LeftShoulder1  -3.88251e-019 9.70628e-020 -3.87848e-018
LeftArm  -32.7658 62.1203 -76.7904
LeftForeArm  -0.166271 -7.08866 -2.33196
LeftHand  -0.082956 0.200089 2.00702
RightShoulder  8.07908 10.9358 37.3627
RightArm  26.2527 -39.1796 16.3769
RightForeArm  -16.1177 28.8189 -14.7402
RightHand  -1.14338 4.63322 -13.1383
LeftUpLeg  -53.0373 -3.96499 13.7957
LeftLeg  106.179 -11.7553 -5.13262
LeftFoot  -28.9552 -1.35289 -9.12744
LeftToes  7.79675e-011 9.80247e-012 -3.28897e-011
179
root  0.400833 22.1267 1.31976 -27.2864 85.4089 -3.41672
RightUpLeg  -57.3951 -9.03665 -4.37869
RightLeg  94.1949 20.0407 -25.0472
RightFoot  -17.6709 0.409318 9.10064
RightToes  5.82077e-011 -3.18055e-015 -2.98177e-016
Spine  27.6189 -1.35251 10.1427
Spine1  8.88486 1.85153 -1.33593
HEad  -15.5382 -2.02338 2.77304
LeftShoulder1  -3.88251e-019 9.70628e-020 -3.87848e-018
LeftArm  -32.425 62.2809 -76.697
LeftForeArm  -0.504244 -8.14471 -2.30388
LeftHand  -0.118472 -0.267202 2.66439
RightShoulder  8.08644 10.9372 37.3954
RightArm  28.2197 -38.256 16.4972
RightForeArm  -8.80928 27.8667 -14.5644
RightHand  -1.42192 5.8348 -14.6246
LeftUpLeg  -52.471 -4.18831 13.9115
LeftLeg  106.365 -11.8708 -4.6872
LeftFoot  -28.8981 -1.37004 -9.28513
LeftToes  7.79675e-011 9.80247e-012 -3.28897e-011
